General

Complete name                    : Mickey.Donald.Goofy.Three.Musketeers.2004.DvDRip.aaaevilacharya.m4v
Format                           : MPEG-4
Format profile                   : Base Media / Version 2
Codec ID                         : mp42
File size                        : 251 MiB
Duration                         : 1h 7mn
Overall bit rate                 : 520 Kbps
Encoded date                     : UTC 2010-12-02 01:14:08
Tagged date                      : UTC 2010-12-02 02:01:08


Video
ID                               : 1
Format                           : AVC
Format/Info                      : Advanced Video Codec
Format profile                   : Baseline@L3.0
Format settings, CABAC           : No
Format settings, ReFrames        : 1 frame
Codec ID                         : avc1
Codec ID/Info                    : Advanced Video Coding
Duration                         : 1h 7mn
Bit rate mode                    : Variable
Bit rate                         : 402 Kbps
Width                            : 480 pixels
Height                           : 208 pixels
Display aspect ratio             : 2.35:1
Frame rate mode                  : Variable
Frame rate                       : 23.976 fps
Original frame rate              : 24.000 fps
Minimum frame rate               : 16.667 fps
Maximum frame rate               : 24.390 fps
Color space                      : YUV
Chroma subsampling               : 4:2:0
Bit depth                        : 8 bits
Scan type                        : Progressive
Bits/(Pixel*Frame)               : 0.168
Stream size                      : 197 MiB (78%)
Writing library                  : x264 core 79


Audio
ID                               : 2
Format                           : AAC
Format/Info                      : Advanced Audio Codec
Format version                   : Version 4
Format profile                   : LC
Format settings, SBR             : No
Codec ID                         : 40
Duration                         : 1h 7mn
Bit rate mode                    : Variable
Bit rate                         : 110 Kbps
Maximum bit rate                 : 163 Kbps
Channel(s)                       : 2 channels
Channel positions                : Front: L R
Sampling rate                    : 32.0 KHz
Stream size                      : 53.2 MiB (21%)
Language                         : English
Encoded date                     : UTC 2010-12-02 01:14:08
Tagged date                      : UTC 2010-12-02 02:01:08

Text
ID                               : 3
Format                           : Apple text
Codec ID                         : text
Duration                         : 1h 7mn
Bit rate                         : 0
Stream size                      : 14.0 Bytes (0%)
Encoded date                     : UTC 2010-12-02 01:14:08
Tagged date                      : UTC 2010-12-02 02:01:08


SCREENSHOTS 
http://img204.imageshack.us/img204/1761/mickeydonaldgoofythreem.jpg
http://img207.imageshack.us/img207/1373/82884172.png
http://img802.imageshack.us/img802/1761/mickeydonaldgoofythreem.jpg
http://img694.imageshack.us/img694/1761/mickeydonaldgoofythreem.jpg
http://img522.imageshack.us/img522/1761/mickeydonaldgoofythreem.jpg
http://img149.imageshack.us/img149/1761/mickeydonaldgoofythreem.jpg

